#!OML:ASF I:\golf\golf\golf 2\Subject 1\2002-09-07\Subject1.ASF
:FULLY-SPECIFIED
:DEGREES
488
root -0.368375 18.0674 -3.31773 2.93592 -0.0115085 -5.914
lowerback -1.76327 -0.458093 1.40298
upperback -0.514256 -0.67927 6.84764
thorax 0.52852 -0.341989 6.30208
lowerneck -20.9823 4.94734 4.40553
upperneck 30.8793 10.7475 -13.9673
head 15.5693 3.17639 -4.54467
rclavicle 1.17034e-014 1.74931e-014
rhumerus -30.0864 -8.97837 -75.4421
rradius 23.2037
rwrist -7.84427
rhand -20.8414 9.95933
rfingers 7.12502
rthumb 5.52746 -19.9486
lclavicle 1.17034e-014 1.74931e-014
lhumerus -26.9407 -8.40571 93.0866
lradius 33.6014
lwrist 3.25801
lhand -8.14164 30.2922
lfingers 7.12502
lthumb 17.7726 59.5
rfemur -14.6013 0.960909 25.6095
rtibia 26.765
rfoot -6.88694 -15.3108
rtoes 8.5329
lfemur -9.48304 5.64184 -6.77213
ltibia 45.503
lfoot -5.81176 -8.94083
ltoes -24.2425
489
root -0.323662 18.0506 -3.35079 2.92192 -0.0928073 -6.00159
lowerback -1.83624 -0.464896 1.42561
upperback -0.543377 -0.691436 6.8953
thorax 0.541017 -0.347993 6.33936
lowerneck -20.6678 5.06842 4.51655
upperneck 31.2622 11.0251 -14.1444
head 15.7443 3.28512 -4.61345
rclavicle 1.2921e-015 8.26944e-014
rhumerus -30.2136 -8.62072 -75.6852
rradius 23.5134
rwrist -7.9861
rhand -20.8199 9.5459
rfingers 7.12502
rthumb 5.54828 -20.3615
lclavicle 1.2921e-015 8.26944e-014
lhumerus -26.8206 -8.20843 93.0313
lradius 33.2022
lwrist 3.09432
lhand -8.21485 30.0677
lfingers 7.12502
lthumb 17.7021 59.282
rfemur -14.895 0.906102 25.5475
rtibia 27.1273
rfoot -6.75587 -15.2135
rtoes 6.80579
lfemur -8.66532 5.40768 -7.02835
ltibia 44.078
lfoot -7.03404 -8.79032
ltoes -25.1374
490
root -0.280922 18.031 -3.38858 2.90924 -0.0917588 -6.06
lowerback -1.88011 -0.504412 1.37868
upperback -0.563911 -0.745037 6.93316
thorax 0.550941 -0.374985 6.40529
lowerneck -20.38 5.20429 4.67181
upperneck 31.6601 11.3168 -14.3293
head 15.9424 3.40291 -4.69327
rclavicle 1.27471e-014 -1.43125e-014
rhumerus -30.292 -8.16643 -75.9881
rradius 23.8618
rwrist -8.28823
rhand -20.7583 8.99
rfingers 7.12502
rthumb 5.6077 -20.9158
lclavicle 1.27471e-014 -1.43125e-014
lhumerus -26.7115 -8.09062 92.9504
lradius 32.8792
lwrist 2.9477
lhand -8.08695 29.8445
lfingers 7.12502
lthumb 17.8252 59.0475
rfemur -15.2224 0.899972 25.4658
rtibia 27.5135
rfoot -6.55115 -15.2129
rtoes 4.96063
lfemur -7.83226 5.26072 -7.28453
ltibia 42.7845
lfoot -8.21486 -7.93273
ltoes -25.5228
491
root -0.240351 18.0188 -3.42476 2.78962 0.0879079 -6.08727
lowerback -1.91767 -0.574865 1.29553
upperback -0.484518 -0.845333 6.93506
thorax 0.665477 -0.4277 6.45195
lowerneck -20.1902 5.30088 4.77236
upperneck 32.0071 11.5168 -14.3969
head 16.1126 3.48824 -4.72626
rclavicle 8.64713e-015 -9.54166e-015
rhumerus -30.213 -7.96453 -76.2467
rradius 24.0885
rwrist -8.6189
rhand -20.4165 9.03837
rfingers 7.12502
rthumb 5.93772 -20.8584
lclavicle 8.64713e-015 -9.54166e-015
lhumerus -26.5302 -8.08321 92.8289
lradius 32.6048
lwrist 2.75102
lhand -7.8762 29.6907
lfingers 7.12502
lthumb 18.028 58.8752
rfemur -15.4431 0.831032 25.3408
rtibia 27.9656
rfoot -6.65626 -15.3045
rtoes 4.10949
lfemur -6.95012 5.09862 -7.51868
ltibia 41.6092
lfoot -9.17101 -6.95588
ltoes -26.076
492
root -0.193857 18.0095 -3.45407 2.6487 0.206603 -5.90823
lowerback -1.98992 -0.65212 1.01014
upperback -0.391954 -0.953211 6.9174
thorax 0.817184 -0.485599 6.5934
lowerneck -20.0646 5.36368 4.75933
upperneck 32.43 11.7146 -14.4436
head 16.3293 3.55515 -4.73556
rclavicle -5.34234e-015 1.59028e-014
rhumerus -30.1598 -7.50324 -76.4939
rradius 24.3469
rwrist -9.07599
rhand -20.2081 9.53345
rfingers 7.12502
rthumb 6.13889 -20.3576
lclavicle -5.34234e-015 1.59028e-014
lhumerus -26.4557 -8.14638 92.8054
lradius 32.4578
lwrist 2.61846
lhand -7.80602 29.8581
lfingers 7.12502
lthumb 18.0955 59.0364
rfemur -15.6129 0.632551 24.9286
rtibia 28.4407
rfoot -7.12568 -15.1519
rtoes 5.18357
lfemur -6.07135 4.93764 -8.02529
ltibia 40.4733
lfoot -10.1287 -6.13944
ltoes -26.9707
